<svg width="50" height="50" viewBox="0 0 50 50" fill="none" xmlns="http://www.w3.org/2000/svg">
<rect width="50" height="50" rx="25" fill="#FFD700"/>
<path d="M25 37.5C24.494 37.5 24.0702 37.3286 23.7286 36.9857C23.3857 36.644 23.2143 36.2202 23.2143 35.7143V26.7857H14.2857C13.7798 26.7857 13.3554 26.6143 13.0125 26.2714C12.6708 25.9298 12.5 25.506 12.5 25C12.5 24.494 12.6708 24.0696 13.0125 23.7268C13.3554 23.3851 13.7798 23.2143 14.2857 23.2143H23.2143V14.2857C23.2143 13.7798 23.3857 13.3554 23.7286 13.0125C24.0702 12.6708 24.494 12.5 25 12.5C25.506 12.5 25.9304 12.6708 26.2732 13.0125C26.6149 13.3554 26.7857 13.7798 26.7857 14.2857V23.2143H35.7143C36.2202 23.2143 36.644 23.3851 36.9857 23.7268C37.3286 24.0696 37.5 24.494 37.5 25C37.5 25.506 37.3286 25.9298 36.9857 26.2714C36.644 26.6143 36.2202 26.7857 35.7143 26.7857H26.7857V35.7143C26.7857 36.2202 26.6149 36.644 26.2732 36.9857C25.9304 37.3286 25.506 37.5 25 37.5Z" fill="white"/>
</svg>
