<svg width="18" height="16" viewBox="0 0 18 16" fill="none" xmlns="http://www.w3.org/2000/svg">
<path d="M17 0H1C0.734784 0 0.48043 0.0887222 0.292893 0.246649C0.105357 0.404575 0 0.61877 0 0.842112V3.02318C0 3.46361 0.213 3.89645 0.583 4.20803L6 8.76975V15.158C6.0002 15.3015 6.04387 15.4425 6.1269 15.5678C6.20992 15.6931 6.32955 15.7985 6.47444 15.8739C6.61934 15.9494 6.78471 15.9925 6.9549 15.9991C7.1251 16.0057 7.29447 15.9756 7.447 15.9117L11.447 14.2275C11.786 14.0843 12 13.793 12 13.4738V8.76975L17.417 4.20803C17.787 3.89645 18 3.46361 18 3.02318V0.842112C18 0.61877 17.8946 0.404575 17.7071 0.246649C17.5196 0.0887222 17.2652 0 17 0ZM10.293 7.82575C10.2 7.90381 10.1262 7.99661 10.0759 8.09879C10.0256 8.20097 9.99981 8.31051 10 8.42112V12.9534L8 13.7955V8.42112C8.00019 8.31051 7.9744 8.20097 7.92412 8.09879C7.87383 7.99661 7.80004 7.90381 7.707 7.82575L2 3.02318V1.68422H16.001L16.003 3.01729L10.293 7.82575Z" fill="#228B22"/>
</svg>
